<svg xmlns="http://www.w3.org/2000/svg" xmlns:xlink="http://www.w3.org/1999/xlink" viewBox="0 0 181 138"><defs><style>.cls-1{fill:url(#Dégradé_sans_nom_310);}.cls-2{fill:url(#Dégradé_sans_nom_308);}.cls-3{fill:#e6e6e6;}.cls-4{stroke:#333;stroke-miterlimit:10;stroke-width:4px;}.cls-5{fill:#5598ff;}.cls-6{fill:url(#Dégradé_sans_nom_308-2);}.cls-7{fill:#5580ff;}</style><linearGradient id="Dégradé_sans_nom_310" x1="-2.26" y1="35.83" x2="160.27" y2="102.03" gradientUnits="userSpaceOnUse"><stop offset="0" stop-color="#fff"/><stop offset="0.53" stop-color="#557cff"/></linearGradient><linearGradient id="Dégradé_sans_nom_308" x1="0.74" y1="30.83" x2="163.27" y2="97.03" gradientUnits="userSpaceOnUse"><stop offset="0" stop-color="#fff"/><stop offset="0.53" stop-color="#59f"/></linearGradient><linearGradient id="Dégradé_sans_nom_308-2" x1="5.13" y1="7.42" x2="12.05" y2="10.24" xlink:href="#Dégradé_sans_nom_308"/></defs><title>camera</title><g id="Calque_2" data-name="Calque 2"><g id="Calque_1-2" data-name="Calque 1"><rect class="cls-1" y="8" width="178" height="130" rx="12" ry="12"/><rect class="cls-2" x="3" y="3" width="178" height="130" rx="12" ry="12"/><circle class="cls-3" cx="92" cy="68" r="45"/><circle cx="92" cy="68" r="37"/><circle class="cls-4" cx="92" cy="68" r="15"/><circle class="cls-5" cx="92" cy="68" r="4"/><circle class="cls-3" cx="86" cy="61" r="5"/><path class="cls-6" d="M15,3A12,12,0,0,0,3,15"/><path class="cls-7" d="M181,15H3A12,12,0,0,1,15,3H169A12,12,0,0,1,181,15Z"/><path class="cls-7" d="M52,5H24c0-2.75.85-5,1.89-5H50.11C51.15,0,52,2.25,52,5Z"/></g></g></svg>