<svg id="trim_area" data-name="trim area" xmlns="http://www.w3.org/2000/svg" viewBox="0 0 192 192"><defs><style>.cls-1{fill:#898c89;}.cls-2{fill:#6d706d;}.cls-3{fill:#39b54a;}.cls-4{fill:#fff;}.cls-5{fill:#c4c6c4;}.cls-6{fill:#989998;}.cls-7{fill:#f2f9f2;}.cls-8{fill:#c6ccc6;}</style></defs><title>ic_material_product_icon_192px</title><polygon class="cls-1" points="63.6 101.43 96.11 101.43 79.86 133 63.6 164.56 47.35 133 31.09 101.43 63.6 101.43"/><polygon class="cls-1" points="129.31 101.36 157.92 101.36 143.62 128.84 129.31 156.32 115.01 128.84 100.7 101.36 129.31 101.36"/><polygon class="cls-1" points="93.7 101.36 136.09 101.36 114.9 142.09 93.7 182.81 72.5 142.09 51.3 101.36 93.7 101.36"/><polygon class="cls-2" points="66.9 101.43 96.11 101.43 81.5 130.5 66.9 159.56 52.29 130.5 37.69 101.43 66.9 101.43"/><polygon class="cls-2" points="121.2 101.43 148.94 101.43 135.07 125.42 121.2 149.41 107.33 125.42 93.46 101.43 121.2 101.43"/><polygon class="cls-2" points="86.03 101.43 100.67 101.43 93.35 121.81 86.03 142.2 78.71 121.81 71.39 101.43 86.03 101.43"/><polygon class="cls-2" points="100.75 101.43 115.39 101.43 108.07 117.32 100.75 133.22 93.42 117.32 86.1 101.43 100.75 101.43"/><polygon class="cls-2" points="140.34 101.43 150.85 101.43 145.59 116.07 140.34 130.72 135.07 116.07 129.81 101.43 140.34 101.43"/><polygon class="cls-2" points="44.09 101.43 51.44 101.43 47.76 111.66 44.09 121.89 40.41 111.66 36.74 101.43 44.09 101.43"/><rect class="cls-3" x="36.73" y="100.92" width="3.75" height="7.87"/><rect class="cls-3" x="31.14" y="92.23" width="126.71" height="9.27"/><rect class="cls-3" x="42.17" y="101.36" width="6.55" height="3.9"/><rect class="cls-3" x="45.71" y="101.5" width="3.02" height="6.55"/><rect class="cls-3" x="48.65" y="101.36" width="3.02" height="1.69"/><rect class="cls-3" x="59.17" y="101.36" width="2.87" height="3.9" transform="translate(121.21 206.61) rotate(180)"/><rect class="cls-3" x="59.91" y="102.83" width="2.87" height="3.9" transform="translate(122.68 209.56) rotate(180)"/><rect class="cls-3" x="61.82" y="101.5" width="2.87" height="3.9" transform="translate(126.51 206.91) rotate(180)"/><rect class="cls-3" x="64.62" y="101.21" width="1.91" height="1.99" transform="translate(131.15 204.41) rotate(180)"/><rect class="cls-3" x="75.36" y="101.21" width="3.68" height="2.13" transform="translate(154.4 204.55) rotate(180)"/><rect class="cls-3" x="91.7" y="101.21" width="3.68" height="2.13" transform="translate(187.07 204.55) rotate(180)"/><rect class="cls-3" x="94.05" y="101.21" width="3.68" height="3.61" transform="translate(191.78 206.02) rotate(180)"/><rect class="cls-3" x="108.62" y="101.06" width="1.91" height="1.99" transform="translate(219.15 204.11) rotate(180)"/><rect class="cls-3" x="108.18" y="102.98" width="1.91" height="1.99" transform="translate(218.27 207.94) rotate(180)"/><rect class="cls-3" x="109.21" y="104.01" width="1.91" height="1.99" transform="translate(220.33 210) rotate(180)"/><rect class="cls-3" x="104.06" y="101.21" width="5.15" height="2.72" transform="translate(213.27 205.14) rotate(180)"/><rect class="cls-3" x="123.34" y="101.5" width="2.65" height="6.55" transform="translate(249.32 209.56) rotate(180)"/><rect class="cls-3" x="125.99" y="101.36" width="3.83" height="2.58" transform="translate(255.8 205.29) rotate(180)"/><rect class="cls-3" x="129.37" y="101.5" width="3.83" height="3.75" transform="translate(262.57 206.76) rotate(180)"/><rect class="cls-3" x="83.45" y="100.92" width="1.91" height="7.14" transform="translate(168.82 208.97) rotate(180)"/><rect class="cls-3" x="85.37" y="101.36" width="3.68" height="2.28" transform="translate(174.41 204.99) rotate(180)"/><rect class="cls-3" x="110.09" y="101.28" width="3.68" height="2.65" transform="translate(223.86 205.21) rotate(180)"/><rect class="cls-3" x="138.5" y="101.58" width="3.68" height="4.42" transform="translate(280.67 207.57) rotate(180)"/><rect class="cls-3" x="142.17" y="100.11" width="3.68" height="2.94" transform="translate(288.03 203.15) rotate(180)"/><path class="cls-4" d="M127,26.24a3.68,3.68,0,0,0-3.67-3,3.88,3.88,0,0,0-1.93.51,5.14,5.14,0,0,0-4.6-2.71,5,5,0,0,0-5.12,4.85c0,.12,0,.24,0,.35a2.47,2.47,0,0,0-2,2.38h0a2.5,2.5,0,0,0,2.56,2.42h14.6a2.5,2.5,0,0,0,2.56-2.42h0A2.49,2.49,0,0,0,127,26.24Z"/><polygon class="cls-5" points="102.6 10.33 102.55 10.25 81.23 51.2 59.92 92.16 145.19 92.16 123.87 51.2 102.6 10.33"/><polygon class="cls-6" points="145.19 92.16 102.6 92.16 102.6 10.33 123.87 51.2 145.19 92.16"/><polygon class="cls-7" points="118.06 39.86 109.19 36 102.6 41.94 96.19 37.7 86.84 40.23 102.6 10.19 118.06 39.86"/><polygon class="cls-8" points="118.06 39.86 109.19 36 102.6 41.94 102.6 10.19 118.06 39.86"/><polygon class="cls-5" points="132.47 42.76 132.45 42.71 119.58 67.43 106.71 92.16 158.19 92.16 145.32 67.43 132.47 42.76"/><polygon class="cls-6" points="158.19 92.16 132.47 92.16 132.47 42.76 145.32 67.43 158.19 92.16"/><polygon class="cls-7" points="141.81 60.59 136.46 58.26 132.47 61.84 128.61 59.28 122.96 60.81 132.47 42.67 141.81 60.59"/><polygon class="cls-8" points="141.81 60.59 136.46 58.26 132.47 61.84 132.47 42.67 141.81 60.59"/><polygon class="cls-5" points="64.62 28.25 64.58 28.19 47.93 60.17 31.29 92.16 97.88 92.16 81.23 60.17 64.62 28.25"/><polygon class="cls-6" points="97.88 92.16 64.62 92.16 64.62 28.25 81.23 60.17 97.88 92.16"/><polygon class="cls-7" points="76.7 51.32 69.77 48.3 64.62 52.94 59.61 49.63 52.31 51.61 64.62 28.14 76.7 51.32"/><polygon class="cls-8" points="76.7 51.32 69.77 48.3 64.62 52.94 64.62 28.14 76.7 51.32"/><path class="cls-4" d="M89.44,62.59a3.53,3.53,0,0,0-5.31-2.45,4.85,4.85,0,0,0-9.21,2.14c0,.12,0,.24,0,.35A2.44,2.44,0,0,0,73,65h0a2.43,2.43,0,0,0,2.42,2.42H89.27A2.44,2.44,0,0,0,91.7,65h0A2.43,2.43,0,0,0,89.44,62.59Z"/><path class="cls-4" d="M150.52,67.59a3.55,3.55,0,0,0-3.49-3,3.5,3.5,0,0,0-1.82.5A4.86,4.86,0,0,0,136,67.29c0,.11,0,.23,0,.34A2.45,2.45,0,0,0,134.08,70h0a2.43,2.43,0,0,0,2.43,2.43h13.83A2.43,2.43,0,0,0,152.77,70h0A2.43,2.43,0,0,0,150.52,67.59Z"/></svg>