<svg xmlns="http://www.w3.org/2000/svg" xmlns:xlink="http://www.w3.org/1999/xlink" viewBox="0 0 1080 2160"><defs><style>.cls-1{stroke:#000;stroke-miterlimit:10;fill:url(#Dégradé_sans_nom_6);}.cls-2{fill:#898c89;}.cls-3{fill:#6d706d;}.cls-4{fill:#39b54a;}.cls-5{fill:#fff;}.cls-6{fill:#c4c6c4;}.cls-7{fill:#989998;}.cls-8{fill:#f2f9f2;}.cls-9{fill:#c6ccc6;}</style><linearGradient id="Dégradé_sans_nom_6" x1="539.5" y1="2160.5" x2="539.5" y2="0.5" gradientUnits="userSpaceOnUse"><stop offset="0" stop-color="#fff"/><stop offset="1" stop-color="#29abe2"/></linearGradient></defs><title>MadDolly</title><g id="Calque_1" data-name="Calque 1"><rect class="cls-1" x="-0.5" y="0.5" width="1080" height="2160"/><polygon class="cls-2" points="336.1 1196 557 1196 446.55 1410.5 336.1 1625 225.65 1410.5 115.2 1196 336.1 1196"/><polygon class="cls-2" points="782.6 1195.5 977 1195.5 879.8 1382.25 782.6 1569 685.4 1382.25 588.2 1195.5 782.6 1195.5"/><polygon class="cls-2" points="540.6 1195.5 828.69 1195.5 684.64 1472.25 540.6 1749 396.56 1472.25 252.51 1195.5 540.6 1195.5"/><polygon class="cls-3" points="358.5 1196 557 1196 457.75 1393.5 358.5 1591 259.25 1393.5 160 1196 358.5 1196"/><polygon class="cls-3" points="727.5 1196 916 1196 821.75 1359 727.5 1522 633.25 1359 539 1196 727.5 1196"/><polygon class="cls-3" points="488.5 1196 588 1196 538.25 1334.5 488.5 1473 438.75 1334.5 389 1196 488.5 1196"/><polygon class="cls-3" points="588.5 1196 688 1196 638.25 1304 588.5 1412 538.75 1304 489 1196 588.5 1196"/><polygon class="cls-3" points="857.5 1196 928.98 1196 893.24 1295.5 857.5 1395 821.76 1295.5 786.02 1196 857.5 1196"/><polygon class="cls-3" points="203.5 1196 253.43 1196 228.47 1265.5 203.5 1335 178.53 1265.5 153.57 1196 203.5 1196"/><rect class="cls-4" x="153.5" y="1192.5" width="25.5" height="53.5"/><rect class="cls-4" x="115.5" y="1133.5" width="861" height="63"/><rect class="cls-4" x="190.5" y="1195.5" width="44.5" height="26.5"/><rect class="cls-4" x="214.5" y="1196.5" width="20.5" height="44.5"/><rect class="cls-4" x="234.5" y="1195.5" width="20.5" height="11.5"/><rect class="cls-4" x="306" y="1195.5" width="19.5" height="26.5" transform="translate(631.5 2417.5) rotate(180)"/><rect class="cls-4" x="311" y="1205.5" width="19.5" height="26.5" transform="translate(641.5 2437.5) rotate(180)"/><rect class="cls-4" x="324" y="1196.5" width="19.5" height="26.5" transform="translate(667.5 2419.5) rotate(180)"/><rect class="cls-4" x="343" y="1194.5" width="13" height="13.5" transform="translate(699 2402.5) rotate(180)"/><rect class="cls-4" x="416" y="1194.5" width="25" height="14.5" transform="translate(857 2403.5) rotate(180)"/><rect class="cls-4" x="527" y="1194.5" width="25" height="14.5" transform="translate(1079 2403.5) rotate(180)"/><rect class="cls-4" x="543" y="1194.5" width="25" height="24.5" transform="translate(1111 2413.5) rotate(180)"/><rect class="cls-4" x="642" y="1193.5" width="13" height="13.5" transform="translate(1297 2400.5) rotate(180)"/><rect class="cls-4" x="639" y="1206.5" width="13" height="13.5" transform="translate(1291 2426.5) rotate(180)"/><rect class="cls-4" x="646" y="1213.5" width="13" height="13.5" transform="translate(1305 2440.5) rotate(180)"/><rect class="cls-4" x="611" y="1194.5" width="35" height="18.5" transform="translate(1257 2407.5) rotate(180)"/><rect class="cls-4" x="742" y="1196.5" width="18" height="44.5" transform="translate(1502 2437.5) rotate(180)"/><rect class="cls-4" x="760" y="1195.5" width="26" height="17.5" transform="translate(1546 2408.5) rotate(180)"/><rect class="cls-4" x="783" y="1196.5" width="26" height="25.5" transform="translate(1592 2418.5) rotate(180)"/><rect class="cls-4" x="471" y="1192.5" width="13" height="48.5" transform="translate(955 2433.5) rotate(180)"/><rect class="cls-4" x="484" y="1195.5" width="25" height="15.5" transform="translate(993 2406.5) rotate(180)"/><rect class="cls-4" x="652" y="1195" width="25" height="18" transform="translate(1329 2408) rotate(180)"/><rect class="cls-4" x="845" y="1197" width="25" height="30" transform="translate(1715 2424) rotate(180)"/><rect class="cls-4" x="870" y="1187" width="25" height="20" transform="translate(1765 2394) rotate(180)"/></g><g id="Calque_2" data-name="Calque 2"><path class="cls-5" d="M766.83,685.06c-2-11.38-12.41-20.06-25-20.06a26.31,26.31,0,0,0-13.07,3.44A35,35,0,0,0,697.54,650c-19.23,0-34.82,14.77-34.82,33,0,.79,0,1.58.1,2.36C655,686.94,649,693.59,649,701.5h0c0,9.08,7.83,16.5,17.41,16.5h99.18c9.58,0,17.41-7.42,17.41-16.5h0C783,692.82,775.83,685.67,766.83,685.06Z"/></g><g id="Calque_6" data-name="Calque 6"><polygon class="cls-6" points="601.07 577 600.76 576.41 455.9 854.71 311.06 1133 890.45 1133 745.61 854.71 601.07 577"/><polygon class="cls-7" points="890.45 1133 601.07 1133 601.07 577 745.61 854.71 890.45 1133"/><polygon class="cls-8" points="706.17 777.65 645.88 751.42 601.07 791.76 557.53 762.95 494.04 780.17 601.07 576 706.17 777.65"/><polygon class="cls-9" points="706.17 777.65 645.88 751.42 601.07 791.76 601.07 576 706.17 777.65"/></g><g id="Calque_7" data-name="Calque 7"><polygon class="cls-6" points="804.09 797.33 803.9 796.97 716.45 964.99 629 1133 978.79 1133 891.35 964.99 804.09 797.33"/><polygon class="cls-7" points="978.79 1133 804.09 1133 804.09 797.33 891.35 964.99 978.79 1133"/><polygon class="cls-8" points="867.54 918.47 831.14 902.63 804.09 926.98 777.8 909.59 739.47 919.99 804.09 796.73 867.54 918.47"/><polygon class="cls-9" points="867.54 918.47 831.14 902.63 804.09 926.98 804.09 796.73 867.54 918.47"/></g><g id="Calque_5" data-name="Calque 5"><polygon class="cls-6" points="343 698.78 342.76 698.32 229.63 915.66 116.51 1133 569 1133 455.88 915.66 343 698.78"/><polygon class="cls-7" points="569 1133 343 1133 343 698.78 455.88 915.66 569 1133"/><polygon class="cls-8" points="425.08 855.48 378 835 343 866.5 309 844 259.41 857.45 343 698 425.08 855.48"/><polygon class="cls-9" points="425.08 855.48 378 835 343 866.5 343 698 425.08 855.48"/></g><g id="Calque_4" data-name="Calque 4"><path class="cls-5" d="M511.67,932.06a24,24,0,0,0-36.05-16.62A33,33,0,0,0,413,930c0,.79,0,1.58.09,2.36A16.56,16.56,0,0,0,400,948.5h0A16.54,16.54,0,0,0,416.5,965h94A16.54,16.54,0,0,0,527,948.5h0A16.55,16.55,0,0,0,511.67,932.06Z"/></g><g id="Calque_3" data-name="Calque 3"><path class="cls-5" d="M926.67,966.06a24,24,0,0,0-36-16.62A33,33,0,0,0,828,964c0,.79,0,1.58.09,2.36A16.56,16.56,0,0,0,815,982.5h0A16.54,16.54,0,0,0,831.5,999h94A16.54,16.54,0,0,0,942,982.5h0A16.55,16.55,0,0,0,926.67,966.06Z"/></g></svg>